<?xml version="1.0" standalone="no"?>
<!DOCTYPE svg PUBLIC "-//W3C//DTD SVG 20010904//EN"
 "http://www.w3.org/TR/2001/REC-SVG-20010904/DTD/svg10.dtd">
<svg version="1.0" xmlns="http://www.w3.org/2000/svg"
 width="512.000000pt" height="512.000000pt" viewBox="0 0 512.000000 512.000000"
 preserveAspectRatio="xMidYMid meet">

<g transform="translate(0.000000,512.000000) scale(0.100000,-0.100000)"
fill="#000000" stroke="none">
<path d="M1268 4032 l-367 -2 58 -93 c89 -141 163 -260 238 -387 l69 -115 385
-5 c266 -3 390 -9 404 -17 35 -20 83 -77 100 -116 13 -33 15 -149 15 -1009
l-1 -972 93 -84 c51 -47 148 -139 216 -205 l123 -121 204 204 205 205 0 978
c0 797 2 984 13 1010 16 36 85 103 123 117 14 6 176 10 373 10 l347 0 182 297
c100 163 181 297 179 299 -4 4 -2521 10 -2959 6z m1020 -318 c66 -22 116 -64
150 -128 l27 -51 1 -1013 0 -1013 68 -68 67 -67 -21 -19 c-21 -19 -21 -18 -98
56 -42 41 -80 79 -84 84 -4 6 -8 461 -8 1011 0 1079 2 1042 -52 1090 -54 49
-46 49 -520 52 -325 3 -449 7 -456 15 -4 7 -13 24 -20 40 l-12 27 454 0 c392
0 461 -2 504 -16z m1542 9 c-1 -5 -9 -23 -19 -42 l-18 -34 -421 2 c-310 2
-431 -1 -461 -10 -53 -16 -107 -68 -120 -117 -7 -23 -13 -324 -17 -807 l-7
-770 27 -24 c55 -51 19 -151 -54 -151 -21 0 -41 9 -61 29 -40 40 -39 83 2 120
l31 29 -4 783 -3 784 27 55 c41 85 73 114 150 141 48 17 95 18 501 19 246 0
447 -3 447 -7z"/>
<path d="M2699 1889 c-26 -26 -21 -59 12 -78 24 -13 29 -13 53 2 31 21 34 56
8 80 -25 23 -48 21 -73 -4z"/>
</g>
</svg>
